# AST/ASF file generated using VICON BodyLanguage
# -----------------------------------------------
:version 1.10
:name VICON
:units
  mass 1.0
  length 0.45
  angle deg
:documentation
   .ast/.asf automatically generated from VICON data using
   VICON BodyBuilder and BodyLanguage model FoxedUp or BRILLIANT.MOD
:root
   order TX TY TZ RX RY RZ
   axis XYZ
   position 0 0 0  
   orientation 0 0 0 
:bonedata
  begin
     id 1 
     name lhipjoint
     direction 0.710188 -0.616876 0.339259 
     length 2.5669 
     axis 0 0 0  XYZ
  end
  begin
     id 2 
     name lfemur
     direction 0.34202 -0.939693 0  
     length 7.12796  
     axis 0 0 20  XYZ
    dof rx ry rz
    limits (-160.0 20.0)
           (-70.0 70.0)
           (-60.0 70.0)
  end
  begin
     id 3 
     name ltibia
     direction 0.34202 -0.939693 0   
     length 7.58108   
     axis 0 0 20   XYZ
    dof rx
    limits (-10.0 170.0)
  end
  begin
     id 4 
     name lfoot
     direction 0.0669471 -0.183936 0.980656   
     length 2.17365   
     axis -90 7.62852e-016 20   XYZ
    dof rx rz
    limits (-45.0 90.0)
           (-70.0 20.0)
  end
  begin
     id 5 
     name ltoes
     direction 1.53508e-011 -4.21705e-011 1   
     length 1.09427   
     axis -90 7.62852e-016 20   XYZ
    dof rx
    limits (-90.0 20.0)
  end
  begin
     id 6 
     name rhipjoint
     direction -0.700191 -0.625589 0.34405   
     length 2.53115  
     axis 0 0 0  XYZ 
  end
  begin
     id 7 
     name rfemur
     direction -0.34202 -0.939693 0   
     length 7.33006   
     axis 0 0 -20   XYZ
    dof rx ry rz
    limits (-160.0 20.0)
           (-70.0 70.0)
           (-70.0 60.0)
  end
  begin
     id 8 
     name rtibia
     direction -0.34202 -0.939693 0   
     length 7.64926   
     axis 0 0 -20   XYZ
    dof rx
    limits (-10.0 170.0)
 end
 begin
     id 9 
     name rfoot
     direction -0.0688927 -0.189281 0.979503   
     length 2.20493  
     axis -90 -7.62852e-016 -20   XYZ
    dof rx rz
    limits (-45.0 90.0)
           (-20.0 70.0)
  end
  begin
     id 10 
     name rtoes
     direction -1.53567e-011 -4.21933e-011 1   
     length 1.10919   
     axis -90 -7.62852e-016 -20   XYZ
    dof rx
    limits (-90.0 20.0)
  end
  begin
     id 11 
     name lowerback
     direction -0.0167868 0.989873 -0.140959   
     length 2.14596   
     axis 0 0 0   XYZ
    dof rx ry rz
    limits (-20.0 45.0)
           (-30.0 30.0)
           (-30.0 30.0)
  end
  begin
     id 12 
     name upperback
     direction 0.0129109 0.998033 0.0613525   
     length 2.10457   
     axis 0 0 0   XYZ
    dof rx ry rz
    limits (-20.0 45.0)
           (-30.0 30.0)
           (-30.0 30.0)
  end
  begin
     id 13 
     name thorax
     direction 0.0177047 0.991119 0.131797   
     length 2.17652   
     axis 0 0 0   XYZ
    dof rx ry rz
    limits (-20.0 45.0)
           (-30.0 30.0)
           (-30.0 30.0)
  end
  begin
     id 14 
     name lowerneck
     direction -0.0336893 0.997548 0.0613464   
     length 1.8912   
     axis 0 0 0   XYZ
    dof rx ry rz
    limits (-20.0 45.0)
           (-30.0 30.0)
           (-30.0 30.0)
  end
  begin
     id 15 
     name upperneck
     direction 0.0435909 0.997179 -0.0611028   
     length 1.8829   
     axis 0 0 0   XYZ
    dof rx ry rz
    limits (-20.0 45.0)
           (-30.0 30.0)
           (-30.0 30.0)
  end
  begin
     id 16
     name head
     direction 0.0175076 0.999444 -0.0283782  
     length 1.93197  
     axis 0 0 0   XYZ
    dof rx ry rz
    limits (-20.0 45.0)
           (-30.0 30.0)
           (-30.0 30.0)
  end
  begin
     id 17 
     name lclavicle
     direction 0.919164 0.389875 0.0559876  
     length 3.60004  
     axis 0 0 0   XYZ
    dof ry rz
    limits (-20.0 10.0)
           (0.0 20.0)
  end
  begin
     id 18 
     name lhumerus
     direction 1 -4.48958e-011 6.89191e-027   
     length 5.43301   
     axis 180 -30 -90   XYZ
    dof rx ry rz
    limits (-60.0 90.0)
           (-90.0 90.0)
           (-90.0 90.0)
  end
  begin
     id 19
     name lradius
     direction 1 -4.4897e-011 3.24727e-027   
     length 3.15936   
     axis 180 -30 -90   XYZ
    dof rx
    limits (-10.0 170.0)
  end
  begin
     id 20
     name lwrist
     direction 1 -4.4897e-011 9.00228e-027   
     length 1.57968   
     axis -6.29373e-015 90 90   XYZ
    dof ry
    limits (-180.0 0.0)
 end
  begin
     id 21 
     name lhand
     direction 1 -4.48968e-011 1.80042e-026   
     length 0.712827   
     axis -1.14882e-014 90 90   XYZ
    dof rx rz
    limits (-90.0 90.0)
           (-45.0 45.0)
  end
  begin
     id 22 
     name lfingers
     direction 1 -4.49019e-011 3.60267e-026   
     length 0.574699   
     axis -2.29769e-014 90 90   XYZ
    dof rx
    limits (0.0 90.0)
  end
  begin
     id 23
     name lthumb
     direction 0.707107 -6.3498e-011 0.707107   
     length 0.825157   
     axis -90 45 5.37419e-014   XYZ
    dof rx rz
    limits (-45.0 45.0)
           (-45.0 45.0)
  end
  begin
     id 24 
     name rclavicle
     direction -0.890334 0.455305 -0.00132111   
     length 3.51494  
     axis 0 0 0   XYZ 
    dof ry rz
    limits (-10.0 20.0)
           (-20.0 0.0)
  end
  begin
     id 25 
     name rhumerus
     direction -1 -4.48967e-011 5.07175e-028  
     length 5.34194   
     axis 180 30 90   XYZ
    dof rx ry rz
    limits (-90.0 60.0)
           (-90.0 90.0)
           (-90.0 90.0)
  end
  begin
     id 26 
     name rradius
     direction -1 -4.48955e-011 3.30467e-027   
     length 3.19351   
     axis 180 30 90   XYZ
    dof rx
    limits (-10.0 170.0)
  end
  begin
     id 27 
     name rwrist
     direction -1 -4.48968e-011 9.00208e-027   
     length 1.59676   
     axis -6.29373e-015 -90 -90   XYZ
    dof ry
    limits (-180.0 0.0)
  end
  begin
     id 28
     name rhand
     direction -1 -4.49e-011 1.80099e-026   
     length 0.743862   
     axis -1.14882e-014 -90 -90   XYZ
    dof rx rz
    limits (-90.0 90.0)
           (-45.0 45.0)
  end
  begin
     id 29
     name rfingers
     direction -1 -4.49009e-011 3.6023e-026   
     length 0.599721   
     axis -2.29769e-014 -90 -90   XYZ
    dof rx
    limits (0.0 90.0)
  end
  begin
     id 30
     name rthumb
     direction -0.707107 -6.35025e-011 0.707107   
     length 0.861083   
     axis -90 -45 -5.37419e-014   XYZ
    dof rx rz
    limits (-45.0 45.0)
           (-45.0 45.0)
  end
:hierarchy
  begin
    root lhipjoint rhipjoint lowerback
    lhipjoint lfemur
    lfemur ltibia
    ltibia lfoot
    lfoot ltoes
    rhipjoint rfemur
    rfemur rtibia
    rtibia rfoot
    rfoot rtoes
    lowerback upperback
    upperback thorax
    thorax lowerneck lclavicle rclavicle
    lowerneck upperneck
    upperneck head
    lclavicle lhumerus
    lhumerus lradius
    lradius lwrist
    lwrist lhand lthumb
    lhand lfingers
    rclavicle rhumerus
    rhumerus rradius
    rradius rwrist
    rwrist rhand rthumb
    rhand rfingers
  end

#!OML:ASF H:\Martial Arts Walks\Project 1\Capture day 1\Session 1\male.ASF
:FULLY-SPECIFIED
:DEGREES
288
root -2.0057 13.8534 -34.9557 5.89593 -24.2581 -13.2032
lowerback 13.4512 4.36814 6.61685
upperback -0.0624834 7.03243 2.81068
thorax -7.16485 3.22654 -2.04801
lowerneck -4.40568 -0.638663 -2.60022
upperneck 5.60517 -0.982485 4.82983
head 2.60647 -0.396308 1.98366
rclavicle -9.6013e-014 -3.65764e-014
rhumerus -38.0094 21.6562 -80.72
rradius 84.6354
rwrist -6.19177
rhand -17.4948 -33.6759
rfingers 7.12502
rthumb 8.75792 -63.4742
lclavicle -9.6013e-014 -3.65764e-014
lhumerus -15.7992 -9.81317 80.588
lradius 55.367
lwrist 7.40492
lhand -27.8993 22.158
lfingers 7.12502
lthumb -1.28866 52.1339
rfemur 8.87168 -5.80431 15.6072
rtibia 46.6333
rfoot -32.5617 -31.7678
rtoes -28.7143
lfemur -64.2754 29.3265 -7.67038
ltibia 78.0092
lfoot -11.6134 1.20055
ltoes 9.99801
289
root -2.00509 13.8495 -34.9495 5.75482 -24.3824 -13.1397
lowerback 13.5932 4.40279 6.51426
upperback 0.0175419 7.0677 2.79915
thorax -7.1661 3.24777 -2.01962
lowerneck -4.38034 -0.646459 -2.61937
upperneck 5.46858 -0.991021 4.89149
head 2.55755 -0.400361 2.00564
rclavicle 2.41026e-014 -3.45885e-014
rhumerus -37.9151 21.6103 -80.6829
rradius 84.6549
rwrist -6.03555
rhand -17.5606 -33.4881
rfingers 7.12502
rthumb 8.69437 -63.289
lclavicle 2.41026e-014 -3.45885e-014
lhumerus -15.7678 -9.7643 80.6033
lradius 55.5163
lwrist 7.48749
lhand -27.9773 22.2281
lfingers 7.12502
lthumb -1.36401 52.2035
rfemur 8.94312 -5.77803 15.4711
rtibia 46.7193
rfoot -32.3699 -31.9798
rtoes -28.9073
lfemur -64.0829 29.3363 -7.6251
ltibia 78.0829
lfoot -11.7354 1.31157
ltoes 10.3513
290
root -2.00376 13.8437 -34.9469 5.7247 -24.4391 -13.175
lowerback 13.7098 4.39869 6.49719
upperback 0.051569 7.06762 2.80788
thorax -7.19807 3.24709 -2.01024
lowerneck -4.29495 -0.657606 -2.61682
upperneck 5.35077 -1.00508 4.92151
head 2.50335 -0.408313 2.01287
rclavicle 4.2192e-014 6.40087e-014
rhumerus -37.8154 21.6374 -80.6891
rradius 84.6472
rwrist -5.93319
rhand -17.7008 -33.4982
rfingers 7.12502
rthumb 8.55911 -63.3047
lclavicle 4.2192e-014 6.40087e-014
lhumerus -15.7223 -9.71008 80.5938
lradius 55.6133
lwrist 7.56409
lhand -28.1056 22.5201
lfingers 7.12502
lthumb -1.48786 52.4947
rfemur 8.9455 -5.74734 15.4765
rtibia 46.8124
rfoot -32.5524 -31.8867
rtoes -28.5623
lfemur -64.0393 29.2894 -7.5235
ltibia 78.1566
lfoot -11.7033 1.4267
ltoes 10.0721
291
root -2.00363 13.8396 -34.9431 5.68058 -24.499 -13.0706
lowerback 13.7783 4.40953 6.34268
upperback 0.0532849 7.06213 2.78533
thorax -7.25029 3.24738 -1.95538
lowerneck -4.23704 -0.661705 -2.65295
upperneck 5.38784 -1.01386 4.97673
head 2.50662 -0.412306 2.0376
rclavicle -1.3418e-014 -4.25399e-014
rhumerus -37.8349 21.6659 -80.7106
rradius 84.7075
rwrist -5.83745
rhand -17.6748 -33.2745
rfingers 7.12502
rthumb 8.58414 -63.08
lclavicle -1.3418e-014 -4.25399e-014
lhumerus -15.7044 -9.67777 80.6111
lradius 55.688
lwrist 7.58887
lhand -28.1761 22.557
lfingers 7.12502
lthumb -1.55596 52.5311
rfemur 8.89428 -5.72287 15.3573
rtibia 46.9086
rfoot -32.4803 -32.051
rtoes -28.4309
lfemur -63.9929 29.1699 -7.55684
ltibia 78.2155
lfoot -11.7492 1.63576
ltoes 10.0469
292
root -2.00193 13.8348 -34.9359 5.59613 -24.5677 -12.9475
lowerback 13.8489 4.41122 6.20186
upperback 0.0827435 7.04405 2.75993
thorax -7.2725 3.24261 -1.9074
lowerneck -4.17123 -0.66778 -2.68138
upperneck 5.34083 -1.02102 5.00226
head 2.47979 -0.4169 2.05013
rclavicle -2.42517e-014 -5.4467e-014
rhumerus -37.8063 21.7104 -80.7231
rradius 84.7648
rwrist -5.73164
rhand -17.6331 -33.0956
rfingers 7.12502
rthumb 8.62445 -62.8994
lclavicle -2.42517e-014 -5.4467e-014
lhumerus -15.7188 -9.61097 80.6162
lradius 55.7889
lwrist 7.51158
lhand -28.2047 22.3106
lfingers 7.12502
lthumb -1.58357 52.2845
rfemur 8.91225 -5.67429 15.1976
rtibia 47.0062
rfoot -32.6377 -31.9895
rtoes -28.0776
lfemur -63.9039 29.0706 -7.60515
ltibia 78.2949
lfoot -11.827 1.82646
ltoes 9.92565
293
root -2.0011 13.8278 -34.9295 5.53591 -24.6941 -12.92
lowerback 13.9637 4.44565 6.11857
upperback 0.10702 7.08399 2.75744
thorax -7.31758 3.26302 -1.88133
lowerneck -4.03058 -0.688376 -2.69475
upperneck 5.16634 -1.04485 5.02387
head 2.39725 -0.431465 2.05625
rclavicle -3.83157e-014 -3.97569e-016
rhumerus -37.753 21.6903 -80.7213
rradius 84.8015
rwrist -5.58509
rhand -17.506 -32.8629
rfingers 7.12502
rthumb 8.74711 -62.6616
lclavicle -3.83157e-014 -3.97569e-016
lhumerus -15.6442 -9.60678 80.625
lradius 55.7955
lwrist 7.48887
lhand -28.3674 22.1463
lfingers 7.12502
lthumb -1.74075 52.119
rfemur 8.91713 -5.5455 15.1487
rtibia 47.1107
rfoot -32.7146 -32.0451
rtoes -27.8405
lfemur -63.7951 29.0854 -7.53908
ltibia 78.3936
lfoot -11.9141 1.92933
ltoes 9.9284
294
root -1.99755 13.8191 -34.9229 5.61536 -24.6696 -12.9651
lowerback 13.9535 4.42172 6.18344
upperback 0.11719 7.05997 2.74806
thorax -7.29348 3.24988 -1.92059
lowerneck -4.10556 -0.690087 -2.70847
upperneck 5.24849 -1.04918 5.0416
head 2.43904 -0.431852 2.0658
rclavicle 5.30258e-014 -3.97569e-015
rhumerus -37.6867 21.6929 -80.7264
rradius 84.8838
rwrist -5.30418
rhand -17.424 -32.5749
rfingers 7.12502
rthumb 8.82621 -62.3703
lclavicle 5.30258e-014 -3.97569e-015
lhumerus -15.5278 -9.60638 80.6155
lradius 55.8187
lwrist 7.39691
lhand -28.3676 22.4554
lfingers 7.12502
lthumb -1.74093 52.4281
rfemur 8.81631 -5.58908 15.1753
rtibia 47.2132
rfoot -32.7071 -32.1587
rtoes -27.7397
lfemur -63.9046 28.9367 -7.47586
ltibia 78.5248
lfoot -11.9622 2.07616
ltoes 9.58695
295
root -1.99523 13.8085 -34.9174 5.69557 -24.7197 -13.1385
lowerback 14.0007 4.42704 6.3373
upperback 0.132245 7.09543 2.76859
thorax -7.28587 3.2619 -1.9925
lowerneck -4.00155 -0.720122 -2.66587
upperneck 5.09144 -1.08656 5.01801
head 2.3684 -0.452728 2.04673
rclavicle -3.16068e-014 1.74931e-014
rhumerus -37.5559 21.6513 -80.7298
rradius 84.9002
rwrist -5.02257
rhand -17.33 -32.3053
rfingers 7.12502
rthumb 8.91688 -62.0968
lclavicle -3.16068e-014 1.74931e-014
lhumerus -15.4497 -9.65103 80.589
lradius 55.8781
lwrist 7.37294
lhand -28.4634 22.4172
lfingers 7.12502
lthumb -1.83348 52.389
rfemur 8.75932 -5.52726 15.341
rtibia 47.3101
rfoot -32.7387 -32.2449
rtoes -27.6515
lfemur -63.9541 28.923 -7.24591
ltibia 78.6882
lfoot -12.0781 2.112
ltoes 9.67023
296
root -1.9924 13.7976 -34.9109 5.80408 -24.6594 -13.2352
lowerback 14.027 4.39145 6.42911
upperback 0.108299 7.06868 2.79151
thorax -7.32069 3.2439 -2.01711
lowerneck -4.00452 -0.718689 -2.73485
upperneck 5.13597 -1.08285 5.03454
head 2.38469 -0.451438 2.06536
rclavicle -3.29486e-014 -7.15625e-015
rhumerus -37.6003 21.7097 -80.7317
rradius 85.0382
rwrist -4.55404
rhand -17.3276 -31.883
rfingers 7.12502
rthumb 8.91924 -61.6745
lclavicle -3.29486e-014 -7.15625e-015
lhumerus -15.4207 -9.65335 80.6075
lradius 55.9414
lwrist 7.31448
lhand -28.367 22.4742
lfingers 7.12502
lthumb -1.74038 52.4468
rfemur 8.67147 -5.61334 15.4153
rtibia 47.3934
rfoot -32.7787 -32.3182
rtoes -27.5468
lfemur -64.0979 28.7464 -7.12071
ltibia 78.8481
lfoot -12.1257 2.21459
ltoes 9.21274
297
root -1.99023 13.7866 -34.9027 5.82519 -24.7128 -13.3303
lowerback 14.1099 4.39576 6.51414
upperback 0.129853 7.09373 2.79891
thorax -7.33309 3.25231 -2.06654
lowerneck -3.95353 -0.744258 -2.69046
upperneck 5.00713 -1.11349 4.99244
head 2.3327 -0.468538 2.04069
rclavicle -3.89618e-014 1.98785e-014
rhumerus -37.4895 21.717 -80.7476
rradius 85.0568
rwrist -4.14031
rhand -17.435 -31.6577
rfingers 7.12502
rthumb 8.81559 -61.4536
lclavicle -3.89618e-014 1.98785e-014
lhumerus -15.3964 -9.63856 80.5967
lradius 56.0474
lwrist 7.2906
lhand -28.3431 22.1666
lfingers 7.12502
lthumb -1.71727 52.1394
rfemur 8.70247 -5.60911 15.4311
rtibia 47.4461
rfoot -32.932 -32.2194
rtoes -27.3702
lfemur -64.0977 28.7316 -6.95774
ltibia 79.03
lfoot -12.2376 2.25782
ltoes 9.01197
298
root -1.99086 13.7812 -34.893 5.86566 -24.7274 -13.247
lowerback 14.054 4.42332 6.48076
upperback 0.155139 7.11357 2.74219
thorax -7.26915 3.26557 -2.10506
lowerneck -4.07292 -0.766751 -2.71376
upperneck 5.14576 -1.14335 4.96006
head 2.4018 -0.48224 2.03519
rclavicle -5.561e-014 1.70955e-014
rhumerus -37.374 21.7102 -80.7465
rradius 85.1314
rwrist -3.46513
rhand -17.6056 -31.5615
rfingers 7.12502
rthumb 8.65094 -61.3643
lclavicle -5.561e-014 1.70955e-014
lhumerus -15.2145 -9.87211 80.5192
lradius 56.1275
lwrist 7.32777
lhand -28.2275 22.7918
lfingers 7.12502
lthumb -1.60565 52.7656
rfemur 8.64726 -5.70609 15.2648
rtibia 47.4886
rfoot -32.8998 -32.2693
rtoes -27.5693
lfemur -64.1697 28.6715 -7.02084
ltibia 79.1872
lfoot -12.4376 2.31045
ltoes 9.00543
